<svg width="536" height="206" viewBox="0 0 536 206" fill="none" xmlns="http://www.w3.org/2000/svg">
<mask id="mask0_16_2652" style="mask-type:alpha" maskUnits="userSpaceOnUse" x="50" y="-3" width="521" height="209">
<rect x="50" y="-3" width="521" height="209" rx="16" fill="#D9D9D9"/>
</mask>
<g mask="url(#mask0_16_2652)">
<path d="M185.085 175.766C185.085 179.352 184.698 182.094 183.925 183.992C183.222 185.82 182.237 186.734 180.972 186.734H168.843V211.414C168.843 212.117 168.632 212.75 168.21 213.312C167.788 213.805 167.05 214.227 165.995 214.578C164.94 214.93 163.569 215.176 161.882 215.316C160.194 215.527 158.015 215.633 155.343 215.633C152.812 215.633 150.667 215.527 148.909 215.316C147.222 215.176 145.851 214.93 144.796 214.578C143.812 214.227 143.108 213.805 142.687 213.312C142.335 212.75 142.159 212.117 142.159 211.414V186.734H89.9522C88.9678 186.734 88.0889 186.629 87.3155 186.418C86.542 186.137 85.8741 185.574 85.3116 184.73C84.8194 183.816 84.4327 182.551 84.1514 180.934C83.9405 179.246 83.835 177.031 83.835 174.289C83.835 172.039 83.8702 170.105 83.9405 168.488C84.0811 166.801 84.2569 165.289 84.4678 163.953C84.7491 162.617 85.1006 161.352 85.5225 160.156C86.0147 158.961 86.6124 157.695 87.3155 156.359L129.714 81.582C130.065 80.9492 130.663 80.4219 131.507 80C132.351 79.5078 133.511 79.1211 134.987 78.8398C136.534 78.4883 138.468 78.2422 140.788 78.1016C143.108 77.9609 145.921 77.8906 149.226 77.8906C152.812 77.8906 155.87 77.9961 158.401 78.207C160.933 78.3477 162.937 78.6289 164.413 79.0508C165.96 79.4023 167.085 79.8594 167.788 80.4219C168.491 80.9844 168.843 81.6523 168.843 82.4258V164.586H180.972C182.097 164.586 183.046 165.465 183.819 167.223C184.663 168.91 185.085 171.758 185.085 175.766ZM142.159 101.832H141.948L105.983 164.586H142.159V101.832ZM326.637 140.539C326.637 146.094 326.355 151.859 325.793 157.836C325.23 163.742 324.141 169.543 322.523 175.238C320.977 180.934 318.797 186.348 315.984 191.48C313.242 196.613 309.656 201.113 305.227 204.98C300.867 208.777 295.523 211.801 289.195 214.051C282.938 216.301 275.52 217.426 266.941 217.426C263.918 217.426 260.895 217.215 257.871 216.793C254.918 216.371 252.211 215.844 249.75 215.211C247.289 214.578 245.18 213.91 243.422 213.207C241.734 212.504 240.504 211.801 239.73 211.098C238.957 210.324 238.395 209.234 238.043 207.828C237.691 206.422 237.516 204.453 237.516 201.922C237.516 199.602 237.551 197.738 237.621 196.332C237.762 194.926 237.973 193.836 238.254 193.062C238.605 192.289 238.992 191.797 239.414 191.586C239.906 191.305 240.469 191.164 241.102 191.164C241.945 191.164 243.141 191.41 244.688 191.902C246.234 192.395 248.098 192.957 250.277 193.59C252.527 194.223 255.059 194.785 257.871 195.277C260.684 195.77 263.812 196.016 267.258 196.016C273.164 196.016 278.156 194.961 282.234 192.852C286.312 190.742 289.617 187.895 292.148 184.309C294.68 180.723 296.543 176.574 297.738 171.863C298.934 167.152 299.602 162.195 299.742 156.992C296.508 159.031 292.605 160.824 288.035 162.371C283.465 163.848 278.227 164.586 272.32 164.586C265.078 164.586 258.926 163.637 253.863 161.738C248.801 159.84 244.688 157.098 241.523 153.512C238.359 149.926 236.039 145.566 234.562 140.434C233.156 135.301 232.453 129.5 232.453 123.031C232.453 116.211 233.473 109.953 235.512 104.258C237.551 98.4922 240.574 93.5352 244.582 89.3867C248.59 85.168 253.582 81.8984 259.559 79.5781C265.535 77.2578 272.461 76.0977 280.336 76.0977C286.664 76.0977 292.184 76.8359 296.895 78.3125C301.676 79.7891 305.754 81.8984 309.129 84.6406C312.574 87.3828 315.422 90.7227 317.672 94.6602C319.992 98.5273 321.785 102.852 323.051 107.633C324.387 112.414 325.301 117.582 325.793 123.137C326.355 128.691 326.637 134.492 326.637 140.539ZM299.109 136.742C299.109 129.219 298.688 122.926 297.844 117.863C297 112.801 295.734 108.758 294.047 105.734C292.359 102.711 290.25 100.566 287.719 99.3008C285.188 98.0352 282.234 97.4023 278.859 97.4023C275.555 97.4023 272.707 98 270.316 99.1953C267.926 100.32 265.922 101.938 264.305 104.047C262.758 106.156 261.598 108.652 260.824 111.535C260.051 114.418 259.664 117.582 259.664 121.027C259.664 124.754 259.98 128.059 260.613 130.941C261.316 133.754 262.371 136.109 263.777 138.008C265.254 139.836 267.152 141.207 269.473 142.121C271.793 143.035 274.605 143.492 277.91 143.492C281.988 143.492 285.82 142.895 289.406 141.699C293.062 140.434 296.297 138.781 299.109 136.742ZM432.059 146.234C432.059 157.133 431.18 166.977 429.422 175.766C427.665 184.555 424.782 192.043 420.774 198.23C416.836 204.418 411.668 209.164 405.27 212.469C398.942 215.773 391.172 217.426 381.961 217.426C372.61 217.426 364.875 215.844 358.758 212.68C352.641 209.445 347.79 204.84 344.204 198.863C340.618 192.816 338.086 185.469 336.61 176.82C335.204 168.102 334.5 158.258 334.5 147.289C334.5 136.461 335.379 126.652 337.137 117.863C338.965 109.004 341.848 101.48 345.786 95.293C349.793 89.1055 354.961 84.3594 361.29 81.0547C367.688 77.75 375.458 76.0977 384.598 76.0977C393.95 76.0977 401.684 77.7148 407.801 80.9492C413.989 84.1133 418.875 88.7188 422.461 94.7656C426.047 100.742 428.543 108.09 429.95 116.809C431.356 125.457 432.059 135.266 432.059 146.234ZM404.11 147.605C404.11 141.137 403.934 135.441 403.583 130.52C403.231 125.527 402.668 121.203 401.895 117.547C401.192 113.891 400.278 110.797 399.153 108.266C398.098 105.734 396.797 103.73 395.25 102.254C393.704 100.707 391.946 99.6172 389.977 98.9844C388.008 98.3516 385.829 98.0352 383.438 98.0352C379.29 98.0352 375.844 99.0547 373.102 101.094C370.43 103.062 368.286 106.051 366.668 110.059C365.122 114.066 364.032 119.059 363.399 125.035C362.766 131.012 362.45 137.973 362.45 145.918C362.45 155.621 362.836 163.672 363.61 170.07C364.383 176.398 365.579 181.461 367.196 185.258C368.883 188.984 371.028 191.621 373.629 193.168C376.231 194.645 379.36 195.383 383.016 195.383C385.758 195.383 388.184 194.961 390.293 194.117C392.403 193.203 394.231 191.867 395.778 190.109C397.395 188.352 398.731 186.137 399.786 183.465C400.84 180.793 401.684 177.699 402.317 174.184C403.02 170.668 403.477 166.695 403.688 162.266C403.969 157.836 404.11 152.949 404.11 147.605ZM535.056 146.234C535.056 157.133 534.177 166.977 532.419 175.766C530.661 184.555 527.778 192.043 523.77 198.23C519.833 204.418 514.665 209.164 508.267 212.469C501.938 215.773 494.169 217.426 484.958 217.426C475.606 217.426 467.872 215.844 461.755 212.68C455.638 209.445 450.786 204.84 447.2 198.863C443.614 192.816 441.083 185.469 439.606 176.82C438.2 168.102 437.497 158.258 437.497 147.289C437.497 136.461 438.376 126.652 440.134 117.863C441.962 109.004 444.845 101.48 448.782 95.293C452.79 89.1055 457.958 84.3594 464.286 81.0547C470.685 77.75 478.454 76.0977 487.595 76.0977C496.946 76.0977 504.681 77.7148 510.798 80.9492C516.985 84.1133 521.872 88.7188 525.458 94.7656C529.044 100.742 531.54 108.09 532.946 116.809C534.352 125.457 535.056 135.266 535.056 146.234ZM507.106 147.605C507.106 141.137 506.931 135.441 506.579 130.52C506.227 125.527 505.665 121.203 504.892 117.547C504.188 113.891 503.274 110.797 502.149 108.266C501.095 105.734 499.794 103.73 498.247 102.254C496.7 100.707 494.942 99.6172 492.974 98.9844C491.005 98.3516 488.825 98.0352 486.435 98.0352C482.286 98.0352 478.841 99.0547 476.099 101.094C473.427 103.062 471.282 106.051 469.665 110.059C468.118 114.066 467.028 119.059 466.395 125.035C465.763 131.012 465.446 137.973 465.446 145.918C465.446 155.621 465.833 163.672 466.606 170.07C467.38 176.398 468.575 181.461 470.192 185.258C471.88 188.984 474.024 191.621 476.626 193.168C479.227 194.645 482.356 195.383 486.013 195.383C488.755 195.383 491.181 194.961 493.29 194.117C495.399 193.203 497.227 191.867 498.774 190.109C500.392 188.352 501.727 186.137 502.782 183.465C503.837 180.793 504.681 177.699 505.313 174.184C506.017 170.668 506.474 166.695 506.685 162.266C506.966 157.836 507.106 152.949 507.106 147.605Z" fill="#F2F2F2"/>
</g>
</svg>
