<svg width="36" height="36" viewBox="0 0 36 36" fill="none" xmlns="http://www.w3.org/2000/svg">
<circle cx="18" cy="18" r="17.5" stroke="#F1DF6F"/>
<path d="M14.0547 20.125C14.0547 20.2969 14.0286 20.4323 13.9766 20.5312C13.9245 20.6302 13.8516 20.6797 13.7578 20.6797H12.6172V22.8047C12.6172 22.8464 12.6068 22.8828 12.5859 22.9141C12.5651 22.9401 12.5286 22.9635 12.4766 22.9844C12.4245 23.0052 12.3568 23.0208 12.2734 23.0312C12.1901 23.0417 12.0833 23.0469 11.9531 23.0469C11.8281 23.0469 11.724 23.0417 11.6406 23.0312C11.5573 23.0208 11.4896 23.0052 11.4375 22.9844C11.3906 22.9635 11.3568 22.9401 11.3359 22.9141C11.3203 22.8828 11.3125 22.8464 11.3125 22.8047V20.6797H7.14062C7.07812 20.6797 7.02604 20.6719 6.98438 20.6562C6.94271 20.6406 6.90365 20.612 6.86719 20.5703C6.83594 20.5286 6.8125 20.4688 6.79688 20.3906C6.78646 20.3125 6.78125 20.2109 6.78125 20.0859C6.78125 19.987 6.78385 19.8984 6.78906 19.8203C6.79427 19.7422 6.80469 19.6719 6.82031 19.6094C6.83594 19.5417 6.85677 19.4792 6.88281 19.4219C6.90885 19.3594 6.9401 19.2943 6.97656 19.2266L10.6172 13.0859C10.6432 13.0443 10.6797 13.0078 10.7266 12.9766C10.7786 12.9453 10.8438 12.9193 10.9219 12.8984C11 12.8776 11.0964 12.8646 11.2109 12.8594C11.3255 12.849 11.4609 12.8438 11.6172 12.8438C11.7891 12.8438 11.9375 12.8516 12.0625 12.8672C12.1927 12.8776 12.2969 12.8932 12.375 12.9141C12.4531 12.9349 12.513 12.9635 12.5547 13C12.5964 13.0312 12.6172 13.0703 12.6172 13.1172V19.5703H13.7578C13.8464 19.5703 13.9167 19.6172 13.9688 19.7109C14.026 19.7995 14.0547 19.9375 14.0547 20.125ZM11.3125 14.0234H11.2969L8.00781 19.5703H11.3125V14.0234ZM22.0703 17.9219C22.0703 18.6979 22.0078 19.4062 21.8828 20.0469C21.763 20.6875 21.5599 21.2396 21.2734 21.7031C20.9922 22.1615 20.6224 22.5182 20.1641 22.7734C19.7057 23.0234 19.1406 23.1484 18.4688 23.1484C17.8333 23.1484 17.2969 23.0365 16.8594 22.8125C16.4271 22.5833 16.0781 22.25 15.8125 21.8125C15.5469 21.3698 15.3568 20.8281 15.2422 20.1875C15.1328 19.5417 15.0781 18.8021 15.0781 17.9688C15.0781 17.1979 15.1406 16.4922 15.2656 15.8516C15.3906 15.2057 15.5938 14.6536 15.875 14.1953C16.1562 13.7318 16.526 13.375 16.9844 13.125C17.4427 12.8698 18.0052 12.7422 18.6719 12.7422C19.3125 12.7422 19.849 12.8568 20.2812 13.0859C20.7188 13.3099 21.0703 13.6432 21.3359 14.0859C21.6016 14.5234 21.7891 15.0651 21.8984 15.7109C22.013 16.3516 22.0703 17.0885 22.0703 17.9219ZM20.6953 18.0156C20.6953 17.5104 20.6771 17.0573 20.6406 16.6562C20.6042 16.2552 20.5495 15.901 20.4766 15.5938C20.4089 15.2865 20.3177 15.0234 20.2031 14.8047C20.0938 14.5807 19.9609 14.3984 19.8047 14.2578C19.6484 14.112 19.4688 14.0078 19.2656 13.9453C19.0677 13.8776 18.8438 13.8438 18.5938 13.8438C18.151 13.8438 17.7917 13.9479 17.5156 14.1562C17.2396 14.3646 17.0208 14.651 16.8594 15.0156C16.7031 15.3802 16.5964 15.8073 16.5391 16.2969C16.4818 16.7865 16.4531 17.3125 16.4531 17.875C16.4531 18.6302 16.4922 19.2734 16.5703 19.8047C16.6484 20.3307 16.7708 20.7604 16.9375 21.0938C17.1094 21.4271 17.3255 21.6693 17.5859 21.8203C17.8516 21.9714 18.1719 22.0469 18.5469 22.0469C18.8385 22.0469 19.0938 22 19.3125 21.9062C19.5365 21.8125 19.7266 21.6797 19.8828 21.5078C20.0443 21.3307 20.1771 21.1198 20.2812 20.875C20.3854 20.6302 20.4688 20.3594 20.5312 20.0625C20.5938 19.7656 20.6354 19.4453 20.6562 19.1016C20.6823 18.7526 20.6953 18.3906 20.6953 18.0156ZM30.0469 18.5C30.0469 18.599 30.0391 18.6849 30.0234 18.7578C30.0078 18.8255 29.987 18.8828 29.9609 18.9297C29.9349 18.9766 29.9036 19.0104 29.8672 19.0312C29.8307 19.0521 29.7917 19.0625 29.75 19.0625H27.1875V21.9062C27.1875 21.9479 27.1771 21.9844 27.1562 22.0156C27.1354 22.0417 27.1016 22.0651 27.0547 22.0859C27.013 22.1068 26.9557 22.125 26.8828 22.1406C26.8099 22.151 26.7188 22.1562 26.6094 22.1562C26.5052 22.1562 26.4141 22.151 26.3359 22.1406C26.263 22.125 26.2031 22.1068 26.1562 22.0859C26.1146 22.0651 26.0833 22.0417 26.0625 22.0156C26.0417 21.9844 26.0312 21.9479 26.0312 21.9062V19.0625H23.4688C23.4219 19.0625 23.3802 19.0521 23.3438 19.0312C23.3125 19.0104 23.2839 18.9766 23.2578 18.9297C23.2318 18.8828 23.2109 18.8255 23.1953 18.7578C23.1797 18.6849 23.1719 18.599 23.1719 18.5C23.1719 18.4062 23.1797 18.3255 23.1953 18.2578C23.2109 18.1849 23.2318 18.125 23.2578 18.0781C23.2839 18.0312 23.3125 17.9974 23.3438 17.9766C23.3802 17.9557 23.4193 17.9453 23.4609 17.9453H26.0312V15.1016C26.0312 15.0599 26.0417 15.0234 26.0625 14.9922C26.0833 14.9557 26.1146 14.9271 26.1562 14.9062C26.2031 14.8802 26.263 14.862 26.3359 14.8516C26.4141 14.8359 26.5052 14.8281 26.6094 14.8281C26.7188 14.8281 26.8099 14.8359 26.8828 14.8516C26.9557 14.862 27.013 14.8802 27.0547 14.9062C27.1016 14.9271 27.1354 14.9557 27.1562 14.9922C27.1771 15.0234 27.1875 15.0599 27.1875 15.1016V17.9453H29.7578C29.7995 17.9453 29.8359 17.9557 29.8672 17.9766C29.9036 17.9974 29.9349 18.0312 29.9609 18.0781C29.9922 18.125 30.013 18.1849 30.0234 18.2578C30.0391 18.3255 30.0469 18.4062 30.0469 18.5Z" fill="#111827"/>
</svg>
