<svg width="36" height="36" viewBox="0 0 36 36" fill="none" xmlns="http://www.w3.org/2000/svg">
<circle cx="18" cy="18" r="17.5" stroke="#F1DF6F"/>
<path d="M13.8594 20.4062C13.8594 20.8438 13.7812 21.2344 13.625 21.5781C13.4688 21.9167 13.2422 22.2031 12.9453 22.4375C12.6536 22.6719 12.2917 22.849 11.8594 22.9688C11.4271 23.0885 10.9323 23.1484 10.375 23.1484C9.85417 23.1484 9.38802 23.0938 8.97656 22.9844C8.5651 22.875 8.21615 22.7135 7.92969 22.5C7.64323 22.2865 7.42448 22.0234 7.27344 21.7109C7.1224 21.3984 7.04688 21.0417 7.04688 20.6406C7.04688 20.3229 7.09896 20.0312 7.20312 19.7656C7.30729 19.5 7.45573 19.2552 7.64844 19.0312C7.84635 18.8073 8.08854 18.599 8.375 18.4062C8.66146 18.2083 8.98438 18.0208 9.34375 17.8438C9.03125 17.6823 8.75521 17.513 8.51562 17.3359C8.27604 17.1536 8.07292 16.9583 7.90625 16.75C7.73958 16.5365 7.61198 16.3099 7.52344 16.0703C7.4401 15.8307 7.39844 15.5703 7.39844 15.2891C7.39844 14.9349 7.46094 14.6042 7.58594 14.2969C7.71615 13.9844 7.90885 13.7135 8.16406 13.4844C8.42448 13.2552 8.7526 13.0755 9.14844 12.9453C9.54948 12.8099 10.0156 12.7422 10.5469 12.7422C11.0573 12.7422 11.4974 12.8047 11.8672 12.9297C12.2422 13.0495 12.5495 13.2161 12.7891 13.4297C13.0339 13.638 13.2135 13.8854 13.3281 14.1719C13.4427 14.4583 13.5 14.7656 13.5 15.0938C13.5 15.3594 13.4557 15.6146 13.3672 15.8594C13.2839 16.1042 13.1589 16.3359 12.9922 16.5547C12.8255 16.7734 12.6198 16.9792 12.375 17.1719C12.1354 17.3594 11.8594 17.5365 11.5469 17.7031C11.9167 17.8854 12.2448 18.0729 12.5312 18.2656C12.8229 18.4583 13.0651 18.6667 13.2578 18.8906C13.4557 19.1094 13.6042 19.3438 13.7031 19.5938C13.8073 19.8385 13.8594 20.1094 13.8594 20.4062ZM12.1719 15.2188C12.1719 15 12.1328 14.8021 12.0547 14.625C11.9818 14.4479 11.8724 14.2969 11.7266 14.1719C11.5807 14.0469 11.3984 13.9531 11.1797 13.8906C10.9661 13.8229 10.7214 13.7891 10.4453 13.7891C9.88281 13.7891 9.45573 13.9167 9.16406 14.1719C8.8776 14.4271 8.73438 14.776 8.73438 15.2188C8.73438 15.4219 8.76823 15.612 8.83594 15.7891C8.90885 15.9609 9.01823 16.125 9.16406 16.2812C9.3151 16.4375 9.5026 16.5911 9.72656 16.7422C9.95573 16.888 10.2266 17.0417 10.5391 17.2031C11.0651 16.9323 11.4688 16.6328 11.75 16.3047C12.0312 15.9766 12.1719 15.6146 12.1719 15.2188ZM12.5 20.5469C12.5 20.3073 12.4557 20.0911 12.3672 19.8984C12.2786 19.7005 12.1432 19.5182 11.9609 19.3516C11.7839 19.1797 11.5599 19.0156 11.2891 18.8594C11.0234 18.6979 10.7135 18.5312 10.3594 18.3594C10.0312 18.5208 9.74219 18.6823 9.49219 18.8438C9.2474 19.0052 9.04427 19.1719 8.88281 19.3438C8.72656 19.5156 8.60677 19.6979 8.52344 19.8906C8.44531 20.0781 8.40625 20.2865 8.40625 20.5156C8.40625 21.0208 8.57812 21.4115 8.92188 21.6875C9.27083 21.9635 9.78906 22.1016 10.4766 22.1016C11.1432 22.1016 11.6458 21.9635 11.9844 21.6875C12.3281 21.4062 12.5 21.026 12.5 20.5469ZM22.0703 17.9219C22.0703 18.6979 22.0078 19.4062 21.8828 20.0469C21.763 20.6875 21.5599 21.2396 21.2734 21.7031C20.9922 22.1615 20.6224 22.5182 20.1641 22.7734C19.7057 23.0234 19.1406 23.1484 18.4688 23.1484C17.8333 23.1484 17.2969 23.0365 16.8594 22.8125C16.4271 22.5833 16.0781 22.25 15.8125 21.8125C15.5469 21.3698 15.3568 20.8281 15.2422 20.1875C15.1328 19.5417 15.0781 18.8021 15.0781 17.9688C15.0781 17.1979 15.1406 16.4922 15.2656 15.8516C15.3906 15.2057 15.5938 14.6536 15.875 14.1953C16.1562 13.7318 16.526 13.375 16.9844 13.125C17.4427 12.8698 18.0052 12.7422 18.6719 12.7422C19.3125 12.7422 19.849 12.8568 20.2812 13.0859C20.7188 13.3099 21.0703 13.6432 21.3359 14.0859C21.6016 14.5234 21.7891 15.0651 21.8984 15.7109C22.013 16.3516 22.0703 17.0885 22.0703 17.9219ZM20.6953 18.0156C20.6953 17.5104 20.6771 17.0573 20.6406 16.6562C20.6042 16.2552 20.5495 15.901 20.4766 15.5938C20.4089 15.2865 20.3177 15.0234 20.2031 14.8047C20.0938 14.5807 19.9609 14.3984 19.8047 14.2578C19.6484 14.112 19.4688 14.0078 19.2656 13.9453C19.0677 13.8776 18.8438 13.8438 18.5938 13.8438C18.151 13.8438 17.7917 13.9479 17.5156 14.1562C17.2396 14.3646 17.0208 14.651 16.8594 15.0156C16.7031 15.3802 16.5964 15.8073 16.5391 16.2969C16.4818 16.7865 16.4531 17.3125 16.4531 17.875C16.4531 18.6302 16.4922 19.2734 16.5703 19.8047C16.6484 20.3307 16.7708 20.7604 16.9375 21.0938C17.1094 21.4271 17.3255 21.6693 17.5859 21.8203C17.8516 21.9714 18.1719 22.0469 18.5469 22.0469C18.8385 22.0469 19.0938 22 19.3125 21.9062C19.5365 21.8125 19.7266 21.6797 19.8828 21.5078C20.0443 21.3307 20.1771 21.1198 20.2812 20.875C20.3854 20.6302 20.4688 20.3594 20.5312 20.0625C20.5938 19.7656 20.6354 19.4453 20.6562 19.1016C20.6823 18.7526 20.6953 18.3906 20.6953 18.0156ZM30.0469 18.5C30.0469 18.599 30.0391 18.6849 30.0234 18.7578C30.0078 18.8255 29.987 18.8828 29.9609 18.9297C29.9349 18.9766 29.9036 19.0104 29.8672 19.0312C29.8307 19.0521 29.7917 19.0625 29.75 19.0625H27.1875V21.9062C27.1875 21.9479 27.1771 21.9844 27.1562 22.0156C27.1354 22.0417 27.1016 22.0651 27.0547 22.0859C27.013 22.1068 26.9557 22.125 26.8828 22.1406C26.8099 22.151 26.7188 22.1562 26.6094 22.1562C26.5052 22.1562 26.4141 22.151 26.3359 22.1406C26.263 22.125 26.2031 22.1068 26.1562 22.0859C26.1146 22.0651 26.0833 22.0417 26.0625 22.0156C26.0417 21.9844 26.0312 21.9479 26.0312 21.9062V19.0625H23.4688C23.4219 19.0625 23.3802 19.0521 23.3438 19.0312C23.3125 19.0104 23.2839 18.9766 23.2578 18.9297C23.2318 18.8828 23.2109 18.8255 23.1953 18.7578C23.1797 18.6849 23.1719 18.599 23.1719 18.5C23.1719 18.4062 23.1797 18.3255 23.1953 18.2578C23.2109 18.1849 23.2318 18.125 23.2578 18.0781C23.2839 18.0312 23.3125 17.9974 23.3438 17.9766C23.3802 17.9557 23.4193 17.9453 23.4609 17.9453H26.0312V15.1016C26.0312 15.0599 26.0417 15.0234 26.0625 14.9922C26.0833 14.9557 26.1146 14.9271 26.1562 14.9062C26.2031 14.8802 26.263 14.862 26.3359 14.8516C26.4141 14.8359 26.5052 14.8281 26.6094 14.8281C26.7188 14.8281 26.8099 14.8359 26.8828 14.8516C26.9557 14.862 27.013 14.8802 27.0547 14.9062C27.1016 14.9271 27.1354 14.9557 27.1562 14.9922C27.1771 15.0234 27.1875 15.0599 27.1875 15.1016V17.9453H29.7578C29.7995 17.9453 29.8359 17.9557 29.8672 17.9766C29.9036 17.9974 29.9349 18.0312 29.9609 18.0781C29.9922 18.125 30.013 18.1849 30.0234 18.2578C30.0391 18.3255 30.0469 18.4062 30.0469 18.5Z" fill="#111827"/>
</svg>
